# xmcd
#
# Track frame offsets:
#	150
#	5827
#	10917
#	15100
#	22587
#	29732
#	34107
#	42680
#	46955
#	53312
#	57782
#	62837
#	67290
#	75877
#	80812
#	88270
#	93385
#	98850
#	103160
#	111054
#	115957
#	122454
#
# Disc length: 1705 seconds
#
# Revision: 1
# Processed by: cddbd v1.4PL0 Copyright (c) Steve Scherf et al.
# Submitted via: audiograbber 1.81.03
#
DISCID=1606a716
DTITLE=Arranged and Recorded by Lisle Growley - Original American Blues
DYEAR=1900
DGENRE=Blues
TTITLE0=Down and Out Blues
TTITLE1=Worried Man Blues
TTITLE2=Teachers Blues
TTITLE3=Fishing Blues
TTITLE4=Nobody Knows You When Your Down and Out
TTITLE5=Wet Weather Blues
TTITLE6=A Man without a Woman
TTITLE7=Corrina, Corrina
TTITLE8=Farewell to you Baby
TTITLE9=Wild About that Thing
TTITLE10=Things About to Come My Way
TTITLE11=Goin' Down the Road
TTITLE12=Weary Road
TTITLE13=Shake that Thing
TTITLE14=Love Sick Blues
TTITLE15=I'm Satisfied
TTITLE16=The Blues Ain't Nothin'
TTITLE17=Long Tall Daddy
TTITLE18=Stateboro Blues
TTITLE19=Sporting Life  Blues
TTITLE20=Yo Yo Blues
TTITLE21=One Dime Blues
EXTD=
EXTT0=
EXTT1=
EXTT2=
EXTT3=
EXTT4=
EXTT5=
EXTT6=
EXTT7=
EXTT8=
EXTT9=
EXTT10=
EXTT11=
EXTT12=
EXTT13=
EXTT14=
EXTT15=
EXTT16=
EXTT17=
EXTT18=
EXTT19=
EXTT20=
EXTT21=
PLAYORDER=
